<svg width="542" height="306" viewBox="0 0 542 306" fill="none" xmlns="http://www.w3.org/2000/svg">
<g opacity="0.59">
<path d="M193.642 44.5685C193.531 43.5732 192.646 42.7991 191.651 42.5779C190.766 42.2461 189.66 42.3567 188.776 42.4673C185.458 43.0202 182.251 44.2367 179.376 46.2273C179.929 45.232 180.592 44.2367 181.256 43.2414C184.131 41.0296 186.564 38.3755 188.333 35.279C188.886 34.3943 189.329 33.399 189.439 32.4037C189.55 31.4084 189.107 30.1919 188.223 29.7495C187.338 29.3072 186.232 29.4177 185.458 29.9707C184.684 30.5236 184.02 31.2978 183.578 32.1825C181.698 35.3896 180.592 39.1496 180.481 43.0202C178.712 45.6744 177.164 48.4391 175.616 51.2038C176.39 48.2179 176.721 45.1214 176.5 42.1355C176.39 41.1402 176.279 40.0343 175.837 39.1496C175.284 38.2649 174.399 37.4908 173.293 37.6014C172.298 37.7119 171.524 38.4861 171.192 39.3708C170.86 40.2555 170.86 41.2508 170.86 42.2461C171.192 46.1167 172.408 49.8768 174.62 53.0839C172.519 56.8439 170.639 60.7145 168.87 64.6957C169.533 61.931 169.754 59.1663 169.533 56.4015C169.423 55.4062 169.312 54.3003 168.87 53.4156C168.317 52.5309 167.432 51.7568 166.326 51.8674C165.331 51.978 164.557 52.7521 164.225 53.6368C163.893 54.5215 163.893 55.5168 163.893 56.5121C164.225 60.3828 165.441 64.1428 167.653 67.3499C165.773 71.6629 164.114 76.0864 162.566 80.51C162.787 77.7453 162.566 74.9805 162.013 72.2158C161.792 71.2205 161.571 70.1146 160.907 69.3405C160.244 68.5664 159.248 68.0134 158.142 68.2346C157.147 68.4558 156.484 69.3405 156.262 70.3358C156.041 71.3311 156.152 72.3264 156.373 73.2111C157.258 76.9711 159.027 80.3994 161.571 83.2747C160.133 87.6983 158.917 92.1219 157.811 96.5455C157.7 93.6701 157.258 90.7948 156.262 88.1407C155.931 87.1454 155.488 86.1501 154.825 85.3759C154.051 84.6018 152.945 84.1595 151.949 84.6018C151.065 84.9336 150.401 85.9289 150.291 86.9242C150.18 87.9195 150.401 88.9148 150.733 89.7995C151.949 93.449 154.161 96.656 157.037 99.1996C156.262 102.628 155.599 106.056 155.046 109.484C154.382 106.609 153.387 103.844 151.949 101.411C151.396 100.527 150.844 99.642 149.959 98.9784C149.074 98.4255 147.968 98.2043 147.084 98.7572C146.199 99.3102 145.867 100.305 145.978 101.301C146.088 102.296 146.531 103.181 146.973 104.066C148.853 107.273 151.507 110.037 154.714 111.917C154.051 116.12 153.608 120.433 153.387 124.635C152.613 121.539 151.286 118.663 149.627 116.009C149.074 115.124 148.411 114.24 147.526 113.797C146.641 113.244 145.425 113.134 144.54 113.687C143.766 114.24 143.434 115.346 143.545 116.341C143.655 117.336 144.208 118.221 144.761 118.995C146.862 122.202 149.848 124.746 153.277 126.515C153.055 129.722 152.945 132.929 152.945 136.247C152.945 136.689 153.719 136.689 153.719 136.247C153.719 131.16 153.94 125.962 154.493 120.875C158.032 120.101 161.46 118.553 164.557 116.452C165.441 115.899 166.215 115.235 166.768 114.35C167.321 113.466 167.432 112.249 166.768 111.364C166.215 110.59 165.11 110.259 164.114 110.48C163.119 110.59 162.234 111.143 161.46 111.696C158.585 113.687 156.262 116.341 154.604 119.327C154.825 116.894 155.157 114.572 155.488 112.249C155.488 112.249 155.599 112.249 155.599 112.36V111.807V111.696C155.82 109.927 156.152 108.157 156.484 106.388H156.705C160.354 105.614 163.782 104.066 166.879 101.964C167.764 101.411 168.538 100.748 169.091 99.8631C169.644 98.9784 169.754 97.7619 169.091 96.8772C168.538 96.1031 167.432 95.7713 166.437 95.9925C165.441 96.1031 164.557 96.656 163.783 97.209C160.686 99.3102 158.253 102.296 156.594 105.614C157.368 101.08 158.474 96.5455 159.58 92.1219C163.23 91.3478 166.658 89.7995 169.754 87.6983C170.639 87.1454 171.413 86.4818 171.966 85.5971C172.519 84.7124 172.63 83.4959 171.966 82.6112C171.413 81.8371 170.307 81.5053 169.312 81.7265C168.317 81.8371 167.432 82.39 166.658 82.943C163.893 84.823 161.571 87.4771 159.912 90.3525C161.35 85.1548 163.008 80.0676 164.888 75.0911C168.538 74.6488 172.187 73.6535 175.505 71.884C176.39 71.4417 177.385 70.8887 177.938 70.004C178.601 69.1193 178.823 68.0134 178.27 67.1287C177.827 66.244 176.721 65.9122 175.726 65.9122C174.731 65.9122 173.846 66.3546 172.961 66.7969C169.975 68.4558 167.432 70.6676 165.441 73.4323C167.321 68.677 169.423 63.9216 171.634 59.3875C175.284 59.498 179.044 58.9451 182.472 57.7286C183.467 57.3968 184.463 56.9545 185.126 56.291C185.9 55.5168 186.232 54.4109 185.9 53.4156C185.569 52.5309 184.573 51.978 183.578 51.8674C182.583 51.7568 181.587 52.0886 180.703 52.4203C177.606 53.5262 174.731 55.4062 172.408 57.8392C174.178 54.3003 176.168 50.7615 178.27 47.3332C181.809 48.2179 185.458 48.3285 189.107 47.8862C190.103 47.7756 191.209 47.5544 192.093 47.0014C193.199 46.5591 193.863 45.5638 193.642 44.5685Z" fill="#DEE9F2"/>
</g>
<g opacity="0.59">
<path d="M289.854 99.5293C290.297 98.6446 291.403 98.3128 292.398 98.3128C293.393 98.4234 294.278 98.7551 295.163 99.3081C298.149 100.967 300.692 103.289 302.572 106.054C302.351 104.948 302.13 103.842 301.909 102.626C300.029 99.6399 298.702 96.2116 298.038 92.6727C297.817 91.6774 297.706 90.5715 297.927 89.5762C298.149 88.5809 298.923 87.6962 300.029 87.475C301.024 87.3644 302.019 87.9174 302.572 88.6915C303.125 89.4656 303.346 90.4609 303.567 91.4562C304.231 95.2163 303.899 99.0869 302.683 102.626C303.346 105.722 303.899 108.929 304.342 112.026C304.673 109.04 305.447 106.054 306.775 103.179C307.217 102.183 307.659 101.299 308.433 100.635C309.207 99.9716 310.424 99.6399 311.309 100.082C312.193 100.525 312.636 101.52 312.636 102.515C312.636 103.51 312.304 104.395 311.862 105.39C310.203 108.929 307.659 111.915 304.563 114.238C305.116 118.551 305.558 122.864 305.89 127.177C306.222 124.412 306.996 121.758 308.212 119.104C308.655 118.108 309.097 117.224 309.871 116.56C310.645 115.896 311.862 115.565 312.746 116.007C313.631 116.449 314.073 117.445 314.073 118.44C314.073 119.435 313.742 120.32 313.299 121.315C311.64 124.854 309.097 127.951 306 130.162C306.222 134.807 306.222 139.563 306.111 144.207C306.885 141.553 308.102 139.01 309.539 136.687C310.092 135.803 310.756 134.918 311.64 134.365C312.525 133.812 313.742 133.701 314.626 134.254C315.4 134.807 315.732 135.913 315.622 136.908C315.511 137.904 314.958 138.788 314.405 139.563C312.304 142.77 309.429 145.424 306 147.083C305.779 151.727 305.337 156.262 304.784 160.796C305.89 158.142 307.327 155.709 309.207 153.386C309.871 152.612 310.535 151.838 311.53 151.396C312.415 150.953 313.631 150.953 314.405 151.617C315.179 152.28 315.29 153.386 315.069 154.382C314.848 155.377 314.295 156.151 313.631 156.925C311.198 159.911 307.991 162.123 304.452 163.45C303.899 166.878 303.346 170.417 302.683 173.845C304.231 171.412 306.222 169.201 308.433 167.321C309.207 166.657 310.092 165.993 311.087 165.772C312.083 165.551 313.299 165.772 313.963 166.546C314.516 167.321 314.516 168.426 314.184 169.311C313.742 170.196 313.078 170.859 312.304 171.523C309.429 173.845 305.89 175.504 302.24 176.168C301.356 180.37 300.25 184.462 299.033 188.554C300.803 186.01 303.125 183.688 305.669 181.808C306.553 181.144 307.438 180.591 308.433 180.481C309.429 180.259 310.645 180.591 311.198 181.476C311.751 182.25 311.64 183.467 311.198 184.241C310.756 185.125 309.982 185.789 309.097 186.342C306 188.554 302.24 189.991 298.48 190.323C297.485 193.42 296.49 196.516 295.384 199.502C295.163 199.944 294.499 199.723 294.72 199.281C296.49 194.525 298.038 189.66 299.476 184.683C296.379 182.692 293.725 180.038 291.624 177.052C291.071 176.168 290.518 175.283 290.297 174.288C290.186 173.292 290.407 172.076 291.292 171.523C292.066 170.97 293.283 171.081 294.057 171.633C294.941 172.076 295.494 172.961 296.047 173.735C298.038 176.61 299.254 179.928 299.697 183.356C300.36 181.034 300.913 178.711 301.356 176.389H301.245L301.466 175.946V175.836C301.798 174.066 302.24 172.297 302.572 170.638L302.351 170.528C299.254 168.537 296.49 165.883 294.389 162.786C293.836 161.902 293.283 161.017 293.061 160.022C292.951 159.026 293.172 157.81 294.057 157.257C294.831 156.704 296.047 156.815 296.821 157.367C297.706 157.81 298.259 158.695 298.812 159.469C300.913 162.565 302.24 166.215 302.572 169.864C303.346 165.33 304.01 160.796 304.563 156.151C301.466 154.16 298.702 151.506 296.6 148.41C296.047 147.525 295.494 146.64 295.273 145.645C295.163 144.65 295.384 143.433 296.269 142.88C297.043 142.327 298.259 142.438 299.033 142.991C299.918 143.433 300.471 144.318 301.024 145.092C302.904 147.857 304.12 151.064 304.673 154.382C305.116 149.073 305.447 143.654 305.447 138.346C302.13 136.687 299.144 134.365 296.6 131.6C295.937 130.826 295.273 129.941 294.941 128.946C294.61 127.951 294.831 126.734 295.605 126.071C296.379 125.407 297.485 125.407 298.37 125.85C299.254 126.181 300.029 126.955 300.582 127.73C302.793 130.273 304.452 133.37 305.226 136.577C305.226 131.49 304.895 126.292 304.342 121.205C300.803 119.988 297.596 118.219 294.72 115.896C293.946 115.233 293.172 114.459 292.73 113.574C292.287 112.689 292.287 111.473 293.061 110.699C293.725 109.925 294.831 109.814 295.826 110.035C296.821 110.256 297.596 110.92 298.37 111.583C300.913 113.795 302.904 116.56 304.231 119.546C303.789 115.565 303.236 111.583 302.462 107.602C298.812 107.16 295.384 106.054 292.177 104.285C291.292 103.842 290.407 103.179 289.744 102.405C289.523 101.63 289.301 100.414 289.854 99.5293Z" fill="#DEE9F2"/>
</g>
<path d="M82.2783 47.1115C82.3889 46.3374 83.163 45.6738 83.9371 45.4527C84.7113 45.2315 85.596 45.2315 86.3701 45.3421C89.1348 45.7844 91.789 46.8903 94.1114 48.4386C93.5584 47.6644 93.116 46.7797 92.5631 46.0056C90.2407 44.2362 88.1395 41.9138 86.5913 39.3702C86.1489 38.5961 85.7066 37.822 85.596 36.9373C85.4854 36.0526 85.8172 35.1679 86.5913 34.7255C87.2548 34.2831 88.2501 34.5043 88.9137 34.9467C89.5772 35.389 90.1301 36.0526 90.4619 36.8267C92.1207 39.4808 93.0055 42.6879 93.116 45.7844C94.5537 47.9962 95.8808 50.3186 97.2079 52.641C96.5443 50.208 96.3231 47.6644 96.4337 45.1209C96.4337 44.2362 96.5443 43.3515 96.9867 42.5773C97.429 41.8032 98.2032 41.2503 99.0879 41.3609C99.862 41.4714 100.526 42.135 100.857 42.9091C101.189 43.6832 101.189 44.5679 101.078 45.3421C100.857 48.5492 99.7514 51.6457 97.982 54.2998C99.7514 57.5069 101.3 60.714 102.848 63.9211C102.295 61.7093 102.184 59.2763 102.295 56.9539C102.295 56.0692 102.406 55.1845 102.848 54.4104C103.29 53.6363 104.064 53.0833 104.949 53.1939C105.723 53.3045 106.387 53.968 106.719 54.7422C107.05 55.5163 107.05 56.401 106.94 57.1751C106.719 60.3822 105.613 63.5893 103.843 66.2434C105.391 69.7823 106.829 73.5423 108.046 77.1918C107.824 74.8694 108.046 72.547 108.488 70.3352C108.709 69.4505 108.93 68.6764 109.483 67.9023C110.036 67.2388 110.921 66.7964 111.695 67.0176C112.469 67.2387 113.022 68.0129 113.243 68.787C113.464 69.5611 113.354 70.4458 113.133 71.22C112.469 74.3165 110.921 77.1918 108.82 79.6247C110.036 83.2742 111.032 86.9236 111.916 90.6837C112.027 88.2507 112.359 85.9283 113.133 83.7165C113.354 82.9424 113.686 82.0577 114.349 81.5048C114.902 80.8412 115.897 80.5095 116.672 80.8412C117.446 81.173 117.888 81.9471 117.999 82.7213C118.109 83.4954 117.888 84.3801 117.556 85.1542C116.561 88.1401 114.681 90.9049 112.248 93.0061C112.912 95.8814 113.464 98.7567 113.907 101.632C114.46 99.3096 115.345 96.9873 116.45 94.8861C116.893 94.1119 117.335 93.3378 118.109 92.8955C118.773 92.4531 119.768 92.2319 120.542 92.6743C121.206 93.1166 121.538 94.0014 121.538 94.7755C121.427 95.5496 121.095 96.3237 120.653 97.0979C119.105 99.752 116.893 102.074 114.239 103.623C114.792 107.161 115.123 110.7 115.345 114.239C116.008 111.696 117.114 109.263 118.552 107.051C118.994 106.277 119.547 105.613 120.321 105.171C121.095 104.729 122.09 104.618 122.754 105.06C123.418 105.503 123.639 106.387 123.528 107.272C123.418 108.046 122.975 108.82 122.533 109.484C120.763 112.138 118.33 114.239 115.455 115.677C115.566 118.331 115.676 121.096 115.676 123.75C115.676 124.192 115.013 124.192 115.013 123.75C115.013 119.437 114.792 115.234 114.46 111.032C111.474 110.369 108.599 109.152 106.055 107.383C105.391 106.94 104.617 106.387 104.175 105.613C103.733 104.839 103.622 103.844 104.175 103.18C104.617 102.517 105.613 102.296 106.387 102.406C107.161 102.517 107.935 102.959 108.599 103.401C110.921 105.06 112.912 107.272 114.239 109.816C114.017 107.825 113.796 105.834 113.464 103.844C113.464 103.844 113.354 103.844 113.354 103.954V103.512V103.401C113.133 101.964 112.912 100.416 112.69 98.9779H112.469C109.483 98.3143 106.497 97.0979 103.954 95.3284C103.29 94.8861 102.516 94.3331 102.074 93.559C101.631 92.7849 101.521 91.7896 102.074 91.126C102.516 90.4625 103.511 90.2413 104.286 90.3519C105.06 90.4625 105.834 90.9049 106.497 91.3472C109.041 93.1166 111.142 95.5496 112.469 98.3143C111.806 94.5543 110.921 90.7943 109.926 87.1448C106.94 86.4813 103.954 85.2648 101.41 83.4954C100.747 83.053 99.9726 82.5001 99.5302 81.7259C99.0879 80.9518 98.9773 79.9565 99.5302 79.293C99.9726 78.6294 100.968 78.4083 101.742 78.5189C102.516 78.6294 103.29 79.0718 103.954 79.5142C106.276 81.173 108.156 83.2742 109.483 85.7072C108.267 81.3942 106.94 77.1918 105.391 72.9894C102.295 72.6576 99.3091 71.7729 96.5443 70.3352C95.7702 69.8929 94.9961 69.4505 94.5537 68.787C94.1114 68.1235 93.8902 67.1282 94.2219 66.354C94.6643 65.6905 95.549 65.2481 96.3231 65.3587C97.0973 65.3587 97.8714 65.6905 98.6455 66.1329C101.078 67.4599 103.29 69.4505 104.949 71.6623C103.401 67.6811 101.631 63.8105 99.7514 59.9399C96.6549 60.0504 93.5584 59.6081 90.6831 58.6128C89.909 58.281 89.0242 57.9492 88.4713 57.3963C87.9184 56.7328 87.476 55.848 87.8078 55.0739C88.1395 54.2998 88.9137 53.8574 89.6878 53.7469C90.4619 53.6363 91.3466 53.8574 92.1207 54.1892C94.7749 55.1845 97.0973 56.7328 99.0879 58.7234C97.5396 55.7375 95.9914 52.8621 94.2219 49.9868C91.236 50.6504 88.2501 50.8715 85.2642 50.4292C84.3795 50.3186 83.4948 50.0974 82.8312 49.6551C82.6101 48.8809 82.0571 47.9962 82.2783 47.1115Z" fill="#DEE9F2"/>
<path d="M0 287.532H424.442C424.663 277.8 423.115 267.847 420.571 258.447C404.314 197.512 346.919 145.978 276.694 129.5C242.633 121.538 206.802 121.316 171.635 123.086C149.738 124.192 126.625 125.961 106.94 117.667C76.4172 104.617 65.4689 72.8783 50.2075 46.7793C40.6969 30.3015 28.0897 14.9296 11.1695 3.76004C9.17891 2.43296 7.07772 1.21648 4.86593 0H0V287.532Z" fill="#DEE9F2"/>
<path opacity="0.24" d="M139.01 254.686C139.01 256.787 130.053 258.446 118.994 258.446C107.935 258.446 98.9771 256.787 98.9771 254.686C98.9771 252.585 107.935 250.926 118.994 250.926C130.053 250.926 139.01 252.585 139.01 254.686Z" fill="#C3D6E1"/>
<path d="M135.251 220.069C135.251 219.959 135.251 219.959 135.251 219.848C134.698 218.411 127.62 217.305 118.884 217.305C110.147 217.305 103.07 218.411 102.517 219.848C102.517 219.848 102.517 219.959 102.517 220.069C102.185 223.719 100.747 244.51 108.71 255.347H112.801H124.966H129.058C137.02 244.51 135.583 223.719 135.251 220.069Z" fill="#04E2AF"/>
<path d="M118.773 222.834C127.873 222.834 135.251 221.596 135.251 220.069C135.251 218.543 127.873 217.305 118.773 217.305C109.672 217.305 102.295 218.543 102.295 220.069C102.295 221.596 109.672 222.834 118.773 222.834Z" fill="#1C103F"/>
<path d="M135.472 230.797C124.192 230.133 113.023 228.364 102.074 225.488C102.074 226.926 102.074 228.474 102.074 230.244C112.912 233.008 124.082 234.778 135.141 235.441C135.362 233.893 135.362 232.345 135.472 230.797Z" fill="#8B93C9"/>
<path d="M105.945 250.814C115.124 250.261 124.303 248.934 133.15 246.612C133.703 244.953 134.035 243.183 134.366 241.414C124.635 244.179 114.46 245.616 104.286 246.169C104.728 247.828 105.281 249.376 105.945 250.814Z" fill="#8B93C9"/>
<path d="M118.773 222.833C127.14 222.833 133.924 222.091 133.924 221.174C133.924 220.258 127.14 219.516 118.773 219.516C110.405 219.516 103.622 220.258 103.622 221.174C103.622 222.091 110.405 222.833 118.773 222.833Z" fill="#2B2460"/>
<path d="M135.472 179.926C134.145 178.599 131.822 178.156 130.274 179.152C131.38 175.281 132.265 171.3 131.822 167.319C131.38 163.669 129.389 158.693 125.519 157.366C122.201 156.26 119.658 160.13 118.662 162.895C116.782 167.872 116.34 173.401 117.335 178.599C116.119 178.046 114.902 177.493 113.686 177.382C105.834 176.829 111.916 188.883 113.243 192.201C112.69 190.763 108.82 194.081 108.488 194.634C107.05 196.735 106.829 199.168 107.714 201.491C108.488 203.813 110.036 205.693 111.363 207.684C113.907 211.333 116.34 215.314 117.446 219.627C117.778 220.733 117.888 221.839 117.999 222.945C118.22 222.945 118.552 222.945 118.773 222.945C119.105 222.945 119.547 222.945 119.879 222.945C119.768 221.839 119.768 220.733 119.879 219.627C119.989 218.411 120.321 217.084 120.763 215.867C121.095 214.983 121.538 213.987 122.201 213.213C122.975 212.328 124.081 211.665 125.076 211.001C127.067 209.785 128.947 208.347 130.274 206.357C131.601 204.477 132.265 201.933 131.712 199.721C131.159 197.509 129.168 195.851 126.846 195.629C131.269 193.418 136.688 190.763 137.131 185.123C137.352 183.243 136.909 181.253 135.472 179.926Z" fill="#F08621"/>
<path d="M120.432 205.032C122.201 201.936 125.077 194.747 119.658 193.531C118.109 193.199 116.451 193.642 114.902 194.084C117.004 190.545 123.086 184.573 118.994 180.703C117.335 179.044 113.907 179.154 112.801 181.145C113.022 175.284 113.133 168.87 109.041 164.446C107.935 163.23 106.276 162.124 104.618 162.234C103.622 162.345 102.738 162.787 101.963 163.23C94.5539 167.985 98.7563 178.38 102.516 184.241C100.526 184.131 97.5398 183.799 96.3233 185.458C94.9963 187.227 94.5539 189.55 95.5492 191.54C96.1022 192.867 100.083 198.618 101.632 198.729C98.7563 198.508 95.328 201.383 95.7704 204.258C96.2127 207.465 101.079 209.677 103.622 211.336C107.05 213.548 110.147 216.423 112.691 219.63C113.465 220.625 114.128 221.621 114.792 222.616C115.676 222.616 116.451 222.727 117.335 222.727C116.782 221.731 116.34 220.625 116.008 219.519C115.566 217.75 115.566 215.981 116.008 214.211C116.451 210.894 118.662 208.018 120.432 205.032Z" fill="#FBB220"/>
<path d="M147.084 190.322C148.632 188.221 149.738 185.678 149.185 183.134C148.632 180.59 146.089 178.489 143.435 178.932C145.647 176.167 147.084 172.849 147.748 169.421C148.08 167.762 148.19 166.103 147.527 164.555C146.863 163.007 145.425 161.68 143.767 161.68C142.661 161.68 141.555 162.122 140.67 162.675C137.684 164.555 135.362 167.541 134.588 170.859C134.035 173.07 134.035 175.282 133.039 177.383C131.823 176.056 129.279 176.388 127.952 177.605C126.625 178.821 126.183 180.812 126.072 182.581C125.74 186.341 126.404 190.101 127.952 193.64C126.293 191.539 122.644 191.871 120.764 193.751C118.884 195.631 118.552 198.506 119.105 201.16C119.658 203.704 120.764 206.137 121.649 208.57C122.644 211.555 122.755 215.979 121.98 219.628C121.759 220.845 121.428 221.951 120.985 222.836C122.091 222.836 123.086 222.725 124.082 222.725C124.082 221.73 124.192 220.734 124.524 219.739C125.188 217.085 126.736 214.652 128.948 212.993C131.602 210.892 134.919 209.897 138.016 208.57C141.112 207.242 144.319 205.584 145.868 202.708C146.752 201.271 147.084 199.28 146.089 197.842C145.204 196.515 143.435 195.962 141.776 195.962C143.435 193.972 145.536 192.313 147.084 190.322Z" fill="#F79827"/>
<path opacity="0.24" d="M345.371 278.131C355.143 278.131 363.065 276.646 363.065 274.814C363.065 272.981 355.143 271.496 345.371 271.496C335.599 271.496 327.677 272.981 327.677 274.814C327.677 276.646 335.599 278.131 345.371 278.131Z" fill="#C3D6E1"/>
<path d="M359.637 244.292C359.637 244.182 359.637 244.182 359.637 244.071C359.084 242.855 352.891 241.859 345.15 241.859C337.519 241.859 331.216 242.855 330.663 244.071V244.182C330.331 247.389 329.115 265.747 336.082 275.368H339.731H350.569H354.218C361.186 265.857 359.969 247.499 359.637 244.292Z" fill="#04E2AF"/>
<path d="M359.637 244.292C359.637 245.619 353.112 246.725 345.15 246.725C337.187 246.725 330.662 245.619 330.662 244.292C330.662 242.965 337.187 241.859 345.15 241.859C353.112 241.97 359.637 242.965 359.637 244.292Z" fill="#1C103F"/>
<path d="M359.858 253.801C349.905 253.248 340.063 251.589 330.331 249.156C330.331 250.373 330.331 251.81 330.331 253.359C339.952 255.792 349.684 257.34 359.526 257.893C359.748 256.455 359.858 255.128 359.858 253.801Z" fill="#8B93C9"/>
<path d="M333.759 271.497C341.942 271.055 349.905 269.838 357.757 267.848C358.199 266.3 358.531 264.751 358.862 263.203C350.237 265.636 341.279 266.963 332.321 267.406C332.763 268.733 333.206 270.17 333.759 271.497Z" fill="#8B93C9"/>
<path d="M331.768 245.286C333.98 246.17 339.178 246.723 345.15 246.723C351.121 246.723 356.319 246.17 358.531 245.286C356.319 244.401 351.121 243.848 345.15 243.848C339.178 243.737 333.98 244.401 331.768 245.286Z" fill="#2B2460"/>
<path d="M359.969 208.792C358.752 207.576 356.762 207.244 355.324 208.129C356.319 204.701 357.093 201.162 356.762 197.733C356.43 194.526 354.55 190.103 351.232 188.997C348.246 188.002 346.145 191.43 345.26 193.863C343.602 198.286 343.159 203.152 344.044 207.797C343.049 207.355 341.943 206.802 340.837 206.691C333.87 206.138 339.289 216.865 340.394 219.741C339.952 218.524 336.524 221.4 336.192 221.842C334.976 223.722 334.754 225.823 335.418 227.924C336.081 229.915 337.409 231.684 338.625 233.343C340.947 236.55 342.938 240.089 343.933 243.849C344.154 244.845 344.376 245.729 344.486 246.725C344.707 246.725 344.929 246.725 345.15 246.725C345.482 246.725 345.813 246.725 346.145 246.725C346.034 245.729 346.034 244.734 346.145 243.849C346.256 242.743 346.587 241.637 346.919 240.532C347.251 239.757 347.583 238.873 348.246 238.209C348.91 237.435 349.905 236.882 350.79 236.219C352.559 235.113 354.218 233.896 355.324 232.127C356.54 230.468 357.093 228.256 356.54 226.266C355.988 224.275 354.329 222.948 352.338 222.616C356.209 220.625 361.075 218.303 361.406 213.327C361.628 211.778 361.075 210.009 359.969 208.792Z" fill="#F08621"/>
<path d="M346.587 231.021C348.136 228.367 350.679 221.953 345.813 220.847C344.376 220.515 342.938 220.958 341.611 221.29C343.491 218.193 348.799 212.995 345.15 209.456C343.602 208.019 340.726 208.129 339.731 209.899C339.952 204.812 339.952 199.061 336.413 195.19C335.418 194.085 333.98 193.089 332.543 193.2C331.658 193.31 330.884 193.642 330.22 194.085C323.695 198.287 327.345 207.466 330.663 212.553C328.893 212.442 326.239 212.221 325.133 213.659C323.917 215.207 323.585 217.308 324.47 219.078C325.023 220.184 328.451 225.271 329.778 225.381C327.234 225.16 324.138 227.704 324.58 230.358C325.023 233.233 329.335 235.113 331.547 236.551C334.644 238.541 337.298 240.974 339.51 243.85C340.173 244.734 340.726 245.619 341.39 246.504C342.164 246.504 342.827 246.614 343.602 246.614C343.049 245.73 342.717 244.734 342.496 243.739C342.164 242.191 342.164 240.643 342.496 239.094C343.049 236.219 345.039 233.676 346.587 231.021Z" fill="#FBB220"/>
<path d="M370.143 217.972C371.58 216.203 372.465 213.88 372.023 211.669C371.58 209.457 369.258 207.577 366.936 208.019C368.926 205.586 370.143 202.6 370.806 199.614C371.027 198.177 371.138 196.739 370.585 195.301C370.032 193.974 368.705 192.758 367.267 192.758C366.272 192.758 365.387 193.2 364.503 193.643C361.849 195.301 359.858 197.956 359.084 200.831C358.641 202.711 358.531 204.812 357.646 206.581C356.54 205.365 354.328 205.697 353.223 206.803C352.006 207.909 351.674 209.567 351.564 211.116C351.232 214.433 351.895 217.751 353.223 220.847C351.785 218.967 348.467 219.299 346.808 220.958C345.15 222.617 344.818 225.16 345.26 227.483C345.702 229.695 346.808 231.796 347.472 234.008C348.357 236.662 348.467 240.532 347.804 243.739C347.582 244.735 347.251 245.73 346.919 246.615C347.914 246.615 348.799 246.615 349.684 246.504C349.684 245.619 349.794 244.735 350.015 243.85C350.679 241.528 352.006 239.427 353.997 237.878C356.319 236.109 359.194 235.114 361.959 234.008C364.724 232.902 367.489 231.353 368.926 228.81C369.7 227.483 369.922 225.824 369.147 224.497C368.373 223.28 366.825 222.838 365.277 222.838C366.936 221.29 368.705 219.852 370.143 217.972Z" fill="#F79827"/>
<path d="M69.118 132.484H62.925V266.85H69.118V132.484Z" fill="#1C103F"/>
<path d="M76.1958 263.758H55.7368V268.624H76.1958V263.758Z" fill="#1C103F"/>
<path d="M123.97 134.81V101.301C123.97 88.9152 113.907 78.8516 101.521 78.8516H61.4872C49.1012 78.8516 39.0376 88.9152 39.0376 101.301V134.699H123.97V134.81Z" fill="#9C6AFD"/>
<path d="M126.956 134.809V101.301C126.956 88.6937 116.782 78.5195 104.174 78.5195C91.5673 78.5195 81.3931 88.6937 81.3931 101.301V134.699H126.956V134.809Z" fill="#384A9E"/>
<path d="M115.787 134.81V101.301C115.787 90.6849 108.488 81.7271 98.5351 79.1836C88.6927 81.6166 81.2832 90.5743 81.2832 101.301V134.699H115.787V134.81Z" fill="#2A3972"/>
<path d="M47.8847 134.92V100.638C47.8847 90.0211 55.2942 81.0633 65.2472 78.8516H62.4825C53.5248 82.0587 47.1106 90.574 47.1106 100.638V134.92H47.8847Z" fill="white"/>
<path d="M77.5227 134.92V100.638C77.5227 90.0211 84.9321 81.0633 94.8852 78.8516H92.1205C83.1627 82.0587 76.7485 90.574 76.7485 100.638V134.92H77.5227Z" fill="white"/>
<path d="M129.607 90.9017L94.2666 103.742L103.104 128.065L138.444 115.224L129.607 90.9017Z" fill="#0AC997"/>
<path d="M103.069 128.062L138.458 115.123L116.561 109.926L103.069 128.062Z" fill="#04E2AF"/>
<path d="M129.611 90.9023L94.2219 103.731L118.33 114.79L129.611 90.9023Z" fill="#08BC8D"/>
<path d="M73.2099 46.5586H57.7274H54.7415V54.1893V111.806H57.7274V54.1893H73.2099V46.5586Z" fill="#FBB220"/>
<path d="M56.1788 115.786C58.0721 115.786 59.607 114.251 59.607 112.358C59.607 110.465 58.0721 108.93 56.1788 108.93C54.2854 108.93 52.7505 110.465 52.7505 112.358C52.7505 114.251 54.2854 115.786 56.1788 115.786Z" fill="white"/>
<path d="M57.9485 112.359C57.9485 111.364 57.1744 110.59 56.1791 110.59C55.1838 110.59 54.4097 111.364 54.4097 112.359C54.4097 113.355 55.1838 114.129 56.1791 114.129C57.1744 114.129 57.9485 113.355 57.9485 112.359Z" fill="#2A3972"/>
<path d="M147.747 134.917H81.3931V132.484H147.747C148.41 132.484 148.963 133.037 148.963 133.701C148.963 134.364 148.41 134.917 147.747 134.917Z" fill="#1F2B4F"/>
<path d="M415.927 63.3679L416.037 63.6996L417.475 62.9255L417.254 62.5938L415.927 63.3679Z" fill="#04E2AF"/>
<path d="M413.767 64.4926L412.4 65.2188L412.607 65.6094L413.975 64.8833L413.767 64.4926Z" fill="#04E2AF"/>
<path d="M395.357 73.4294L394.804 73.6506L394.915 73.9824L395.467 73.7612C395.799 73.6506 396.131 73.54 396.463 73.4294L396.352 73.0977C395.91 73.2082 395.578 73.3188 395.357 73.4294Z" fill="#04E2AF"/>
<path d="M408.959 67.0163L409.18 67.3481C409.623 67.1269 410.065 66.9057 410.618 66.574L410.397 66.2422C409.844 66.574 409.401 66.7951 408.959 67.0163Z" fill="#04E2AF"/>
<path d="M401.992 70.5542L402.214 70.8859C402.656 70.6647 403.209 70.4436 403.651 70.2224L403.43 69.8906C402.877 70.1118 402.435 70.333 401.992 70.5542Z" fill="#04E2AF"/>
<path d="M398.453 72.101L398.564 72.4328C399.006 72.2116 399.559 71.9904 400.001 71.7693L399.891 71.4375C399.338 71.7693 398.895 71.8799 398.453 72.101Z" fill="#04E2AF"/>
<path d="M405.531 68.7846L405.753 69.1164C406.195 68.8952 406.637 68.674 407.19 68.4529L406.969 68.1211C406.416 68.3423 405.974 68.5635 405.531 68.7846Z" fill="#04E2AF"/>
<path d="M429.971 56.51L430.082 56.8417C430.524 56.6206 431.077 56.3994 431.519 56.2888L431.409 55.957C430.966 56.0676 430.413 56.2888 429.971 56.51Z" fill="#04E2AF"/>
<path d="M422.894 59.7182L423.115 60.05C423.557 59.8288 423.999 59.6076 424.552 59.3865L424.331 59.0547C423.778 59.2759 423.336 59.497 422.894 59.7182Z" fill="#04E2AF"/>
<path d="M466.687 259.553V259.996C467.24 259.885 467.682 259.885 468.235 259.774V259.332C467.682 259.443 467.24 259.553 466.687 259.553Z" fill="#04E2AF"/>
<path d="M348.799 78.1872C349.352 78.2978 349.794 78.519 350.347 78.6296L350.457 78.2978C349.904 78.1872 349.462 78.0766 348.909 77.8555L348.799 78.1872Z" fill="#04E2AF"/>
<path d="M419.355 61.4878L419.576 61.8195C420.018 61.5983 420.461 61.3772 421.014 61.156L420.792 60.8242C420.239 61.0454 419.797 61.2666 419.355 61.4878Z" fill="#04E2AF"/>
<path d="M360.411 80.0661C360.964 80.0661 361.406 80.0661 361.959 80.1767V79.7344C361.406 79.7344 360.964 79.7344 360.411 79.7344V80.0661Z" fill="#04E2AF"/>
<path d="M372.133 79.1821V79.6245C372.686 79.5139 373.128 79.5139 373.681 79.4033V78.9609C373.128 79.0715 372.575 79.1821 372.133 79.1821Z" fill="#04E2AF"/>
<path d="M368.373 79.5129H368.263V79.9553H368.373C368.816 79.9553 369.369 79.8447 369.811 79.8447V79.4023C369.258 79.4023 368.816 79.5129 368.373 79.5129Z" fill="#04E2AF"/>
<path d="M364.281 79.7327V80.1751C364.834 80.1751 365.276 80.1751 365.829 80.1751V79.7327C365.387 79.6222 364.834 79.7327 364.281 79.7327Z" fill="#04E2AF"/>
<path d="M391.154 74.9787L391.265 75.3105C391.707 75.0893 392.26 74.9787 392.703 74.7575L392.592 74.4258C392.15 74.647 391.597 74.7575 391.154 74.9787Z" fill="#04E2AF"/>
<path d="M356.429 79.7314C356.982 79.842 357.424 79.842 357.977 79.842V79.3997C357.424 79.3997 356.982 79.2891 356.429 79.2891V79.7314Z" fill="#04E2AF"/>
<path d="M352.559 79.0701C353.112 79.1806 353.554 79.2912 354.107 79.4018L354.217 79.0701C353.664 78.9595 353.222 78.8489 352.669 78.7383L352.559 79.0701Z" fill="#04E2AF"/>
<path d="M387.394 76.0869L387.505 76.4187C388.058 76.3081 388.5 76.0869 389.053 75.9763L388.943 75.6445C388.39 75.8657 387.947 75.9763 387.394 76.0869Z" fill="#04E2AF"/>
<path d="M376.004 78.6274L376.114 78.9592C376.667 78.8486 377.11 78.8486 377.663 78.738L377.552 78.4062C376.999 78.5168 376.446 78.6274 376.004 78.6274Z" fill="#04E2AF"/>
<path d="M383.634 77.1911L383.745 77.5229C384.298 77.4123 384.74 77.3017 385.293 77.1911L385.182 76.8594C384.629 76.8594 384.187 76.97 383.634 77.1911Z" fill="#04E2AF"/>
<path d="M379.764 77.9646L379.874 78.2964C380.427 78.1858 380.87 78.0752 381.423 77.9646L381.312 77.6328C380.87 77.7434 380.317 77.854 379.764 77.9646Z" fill="#04E2AF"/>
<path d="M451.646 263.976L451.868 264.308C452.31 264.087 452.752 263.865 453.305 263.644L453.195 263.312C452.531 263.534 452.089 263.755 451.646 263.976Z" fill="#04E2AF"/>
<path d="M455.186 262.319L455.296 262.65C455.739 262.429 456.292 262.319 456.734 262.097L456.623 261.766C456.181 261.987 455.739 262.208 455.186 262.319Z" fill="#04E2AF"/>
<path d="M452.421 49.5427L452.532 49.8745C453.085 49.7639 453.527 49.6533 454.08 49.5427L453.969 49.2109C453.416 49.3215 452.974 49.4321 452.421 49.5427Z" fill="#04E2AF"/>
<path d="M448.218 265.856L448.439 266.188C448.882 265.856 449.324 265.635 449.767 265.414L449.545 265.082C449.103 265.303 448.661 265.524 448.218 265.856Z" fill="#04E2AF"/>
<path d="M448.55 50.3161L448.661 50.6479C449.214 50.5373 449.656 50.4267 450.209 50.3161L450.099 49.9844C449.656 50.095 449.103 50.2056 448.55 50.3161Z" fill="#04E2AF"/>
<path d="M462.816 260.215L462.927 260.546C463.48 260.436 463.922 260.325 464.475 260.215L464.365 259.883C463.812 259.993 463.259 260.104 462.816 260.215Z" fill="#04E2AF"/>
<path d="M458.946 261.099L459.056 261.43C459.609 261.32 460.051 261.209 460.604 260.988L460.494 260.656C459.941 260.877 459.499 260.988 458.946 261.099Z" fill="#04E2AF"/>
<path d="M435.943 278.906C435.722 279.349 435.501 279.902 435.28 280.344L435.611 280.565C435.832 280.123 436.054 279.68 436.275 279.127L435.943 278.906Z" fill="#04E2AF"/>
<path d="M437.049 276.917L437.381 277.138C437.713 276.696 437.934 276.253 438.266 275.811L437.934 275.59C437.713 275.922 437.381 276.364 437.049 276.917Z" fill="#04E2AF"/>
<path d="M445.011 268.066L445.232 268.397C445.675 268.066 446.007 267.734 446.449 267.402L446.228 267.07C445.785 267.513 445.343 267.734 445.011 268.066Z" fill="#04E2AF"/>
<path d="M434.285 282.445C434.063 282.888 433.953 283.441 433.732 283.883L434.063 283.994C434.174 283.551 434.395 282.998 434.616 282.556L434.285 282.445Z" fill="#04E2AF"/>
<path d="M347.25 43.0168C347.361 43.4592 347.472 44.0121 347.472 44.4545H347.914C347.914 43.9016 347.803 43.3486 347.693 42.9062L347.25 43.0168Z" fill="#04E2AF"/>
<path d="M439.371 273.709L439.703 273.93C440.035 273.487 440.366 273.156 440.698 272.713L440.366 272.492C440.035 272.824 439.703 273.266 439.371 273.709Z" fill="#04E2AF"/>
<path d="M442.026 270.719L442.247 271.051C442.579 270.719 443.021 270.277 443.353 269.945L443.132 269.613C442.8 269.945 442.357 270.387 442.026 270.719Z" fill="#04E2AF"/>
<path d="M442.689 52.3083L442.578 51.9766C442.025 52.0872 441.583 52.3083 441.03 52.4189L441.141 52.7507C441.694 52.6401 442.136 52.5295 442.689 52.3083Z" fill="#04E2AF"/>
<path d="M427.539 57.5051C427.207 57.7263 426.764 57.8369 426.433 58.0581L426.543 58.3898C426.875 58.1687 427.317 58.0581 427.649 57.8369L427.981 57.7263L427.87 57.3945L427.539 57.5051Z" fill="#04E2AF"/>
<path d="M457.84 48.8786L457.729 48.5469C457.176 48.6575 456.734 48.7681 456.181 48.7681L456.292 49.0998C456.844 49.0998 457.397 48.9892 457.84 48.8786Z" fill="#04E2AF"/>
<path d="M446.449 51.3122L446.339 50.9805C445.786 51.0911 445.343 51.2016 444.79 51.4228L444.901 51.7546C445.454 51.5334 445.896 51.4228 446.449 51.3122Z" fill="#04E2AF"/>
<path d="M438.929 53.5232L438.819 53.1914C438.376 53.302 437.823 53.5232 437.381 53.7444L437.491 54.0761C437.934 53.8549 438.376 53.6338 438.929 53.5232Z" fill="#04E2AF"/>
<path d="M435.28 54.8513L435.169 54.5195C434.727 54.7407 434.174 54.8513 433.732 55.0725L433.842 55.4042C434.285 55.1831 434.727 54.9619 435.28 54.8513Z" fill="#04E2AF"/>
<path d="M465.692 47.8838V47.4414C465.139 47.4414 464.697 47.552 464.144 47.552V47.9944C464.586 47.9944 465.139 47.8838 465.692 47.8838Z" fill="#04E2AF"/>
<path d="M461.711 48.3252V47.8828C461.158 47.9934 460.715 47.9934 460.162 48.104V48.5464C460.715 48.4358 461.268 48.4358 461.711 48.3252Z" fill="#04E2AF"/>
<path d="M329.225 48.6575L328.893 48.5469C328.782 49.0998 328.672 49.5422 328.561 50.0951L328.893 50.2057C328.893 49.6528 329.003 49.2104 329.225 48.6575Z" fill="#04E2AF"/>
<path d="M433.51 286.314L433.178 286.203C433.068 286.756 432.957 287.198 432.846 287.751L433.178 287.862C433.289 287.309 433.399 286.867 433.51 286.314Z" fill="#04E2AF"/>
<path d="M296.379 61.595C296.49 62.1479 296.601 62.7009 296.932 63.1432L297.264 62.922C297.043 62.4797 296.932 62.0373 296.822 61.4844L296.379 61.595Z" fill="#04E2AF"/>
<path d="M301.909 66.7927C302.351 66.9033 302.904 67.1245 303.457 67.1245L303.568 66.7927C303.015 66.6821 302.572 66.5715 302.019 66.4609L301.909 66.7927Z" fill="#04E2AF"/>
<path d="M298.37 65.0271C298.812 65.3588 299.254 65.6906 299.697 65.9118L299.918 65.58C299.476 65.3588 299.033 65.0271 298.701 64.6953L298.37 65.0271Z" fill="#04E2AF"/>
<path d="M346.366 40.9181L346.698 40.6969C346.366 40.2546 346.034 39.8122 345.592 39.4805L345.371 39.8122C345.702 40.144 346.034 40.5864 346.366 40.9181Z" fill="#04E2AF"/>
<path d="M469.562 47.5517V47.1094C469.009 47.1094 468.567 47.22 468.014 47.22V47.6623C468.457 47.6623 469.009 47.5517 469.562 47.5517Z" fill="#04E2AF"/>
<path d="M307.218 67.125C306.775 67.125 306.333 67.125 305.891 67.125V67.5674C306.333 67.5674 306.775 67.5674 307.328 67.5674H307.549V67.125H307.218Z" fill="#04E2AF"/>
<path d="M328.561 53.5266C328.561 53.1948 328.561 52.863 328.561 52.5312H328.119C328.119 52.863 328.119 53.1948 328.119 53.5266C328.119 53.7477 328.119 53.9689 328.119 54.0795H328.561C328.561 53.8583 328.561 53.6371 328.561 53.5266Z" fill="#04E2AF"/>
<path d="M332.652 67.3462C332.984 67.7885 333.316 68.2309 333.648 68.5627L333.979 68.3415C333.648 67.8991 333.316 67.5674 333.095 67.125L332.652 67.3462Z" fill="#04E2AF"/>
<path d="M335.528 58.9433L335.749 59.2751C336.191 58.9433 336.634 58.7221 337.076 58.3904L336.855 58.0586C336.413 58.3904 335.97 58.6115 335.528 58.9433Z" fill="#04E2AF"/>
<path d="M338.735 56.7336L338.956 57.0653C339.398 56.7336 339.841 56.4018 340.173 56.07L339.951 55.7383C339.62 56.07 339.177 56.4018 338.735 56.7336Z" fill="#04E2AF"/>
<path d="M338.182 72.988C338.624 73.3198 339.067 73.6516 339.509 73.8727L339.73 73.541C339.288 73.2092 338.846 72.988 338.403 72.6562L338.182 72.988Z" fill="#04E2AF"/>
<path d="M335.749 39.3672C335.307 39.5884 334.864 39.9201 334.422 40.1413L334.643 40.4731C335.085 40.1413 335.528 39.9201 335.97 39.699L335.749 39.3672Z" fill="#04E2AF"/>
<path d="M335.196 70.445C335.528 70.7768 335.97 71.2192 336.302 71.5509L336.523 71.2192C336.192 70.8874 335.749 70.5556 335.417 70.1133L335.196 70.445Z" fill="#04E2AF"/>
<path d="M339.509 38.1523C338.956 38.2629 338.514 38.3735 337.961 38.4841L338.072 38.8159C338.624 38.7053 339.067 38.5947 339.62 38.4841L339.509 38.1523Z" fill="#04E2AF"/>
<path d="M345.371 50.207C345.149 50.6494 344.818 51.0917 344.486 51.4235L344.818 51.6447C345.149 51.2023 345.481 50.76 345.702 50.3176L345.371 50.207Z" fill="#04E2AF"/>
<path d="M345.039 76.8591C345.481 77.0803 346.034 77.3015 346.476 77.4121L346.587 77.0803C346.144 76.8591 345.592 76.7485 345.149 76.5273L345.039 76.8591Z" fill="#04E2AF"/>
<path d="M341.832 38.4841C342.385 38.4841 342.827 38.5947 343.269 38.8159L343.38 38.4841C342.938 38.3735 342.385 38.2629 341.832 38.1523V38.4841Z" fill="#04E2AF"/>
<path d="M341.5 75.0896C341.942 75.3108 342.384 75.6425 342.937 75.8637L343.158 75.5319C342.716 75.3108 342.274 75.0896 341.831 74.7578L341.5 75.0896Z" fill="#04E2AF"/>
<path d="M341.832 54.3L342.053 54.6318C342.495 54.3 342.827 53.9682 343.159 53.5259L342.827 53.3047C342.606 53.6365 342.164 53.9682 341.832 54.3Z" fill="#04E2AF"/>
<path d="M330.662 63.9192C330.884 64.3615 331.105 64.9145 331.436 65.3568L331.768 65.1357C331.547 64.6933 331.215 64.251 330.994 63.8086L330.662 63.9192Z" fill="#04E2AF"/>
<path d="M333.538 60.0469C333.095 60.2681 332.653 60.5998 332.21 60.821L332.432 61.1528C332.874 60.9316 333.316 60.7104 333.759 60.3786L333.538 60.0469Z" fill="#04E2AF"/>
<path d="M346.587 48.215L346.919 48.3256C347.14 47.7726 347.361 47.3303 347.472 46.8879L347.14 46.7773C346.919 47.2197 346.808 47.7726 346.587 48.215Z" fill="#04E2AF"/>
<path d="M321.262 65.1377L321.372 65.4694C321.925 65.3588 322.368 65.1377 322.921 65.0271L322.81 64.6953C322.257 64.9165 321.815 65.0271 321.262 65.1377Z" fill="#04E2AF"/>
<path d="M325.022 64.0295L325.133 64.3613C325.575 64.1401 326.128 64.0295 326.57 63.8083L326.46 63.4766C326.017 63.5872 325.464 63.8083 325.022 64.0295Z" fill="#04E2AF"/>
<path d="M313.631 66.6821V67.1245C314.184 67.0139 314.627 67.0139 315.18 66.9033L315.069 66.4609C314.627 66.5715 314.184 66.6821 313.631 66.6821Z" fill="#04E2AF"/>
<path d="M317.502 66.1325L317.613 66.4643C318.165 66.3537 318.608 66.2431 319.161 66.1325L319.05 65.8008C318.497 65.9114 317.944 66.022 317.502 66.1325Z" fill="#04E2AF"/>
<path d="M329.003 57.9467C328.893 57.3937 328.782 56.9514 328.782 56.3984H328.34C328.45 56.9514 328.45 57.3937 328.561 57.9467H329.003Z" fill="#04E2AF"/>
<path d="M332.542 41.6914C332.321 42.0232 331.989 42.2444 331.768 42.5761C331.657 42.6867 331.547 42.7973 331.547 42.9079L331.768 43.1291C331.878 43.0185 331.989 42.9079 331.989 42.7973C332.21 42.4655 332.431 42.2444 332.763 41.9126L332.542 41.6914Z" fill="#04E2AF"/>
<path d="M328.671 62.4838L328.782 62.8156C329.224 62.5944 329.777 62.3733 330.22 62.1521L329.998 61.8203C329.556 62.1521 329.114 62.3733 328.671 62.4838Z" fill="#04E2AF"/>
<path d="M309.761 67.1262V67.5686C310.314 67.5686 310.756 67.458 311.309 67.458V67.0156C310.756 67.0156 310.314 67.0156 309.761 67.1262Z" fill="#04E2AF"/>
<path d="M329.556 46.3373L329.888 46.4479C330.109 46.0055 330.33 45.4526 330.551 45.0102L330.22 44.7891C329.999 45.342 329.777 45.895 329.556 46.3373Z" fill="#04E2AF"/>
<path d="M329.667 60.1602L329.335 60.2707C329.446 60.7131 329.667 61.266 329.888 61.7084L330.22 61.5978C329.999 61.1555 329.777 60.7131 329.667 60.1602Z" fill="#04E2AF"/>
<path d="M501.523 263.312C502.076 263.423 502.518 263.533 503.071 263.644L503.182 263.312C502.629 263.202 502.186 263.091 501.633 262.98L501.523 263.312Z" fill="#04E2AF"/>
<path d="M503.071 49.324C503.624 49.4345 504.066 49.5451 504.619 49.5451L504.729 49.2134C504.176 49.1028 503.734 48.9922 503.181 48.9922L503.071 49.324Z" fill="#04E2AF"/>
<path d="M499.2 48.7705C499.753 48.8811 500.195 48.8811 500.748 48.9917L500.859 48.5493C500.306 48.4387 499.864 48.4387 499.311 48.3281L499.2 48.7705Z" fill="#04E2AF"/>
<path d="M505.435 263.797L505.328 264.227L506.83 264.602L506.937 264.172L505.435 263.797Z" fill="#04E2AF"/>
<path d="M495.329 48.2158C495.882 48.3264 496.325 48.3264 496.878 48.437V47.9946C496.325 47.884 495.882 47.884 495.329 47.7734V48.2158Z" fill="#04E2AF"/>
<path d="M493.892 261.543C494.445 261.653 494.887 261.764 495.44 261.874L495.551 261.543C494.998 261.432 494.555 261.322 494.002 261.211L493.892 261.543Z" fill="#04E2AF"/>
<path d="M514.461 51.7536C515.014 51.8642 515.457 51.9748 516.01 52.0854L516.12 51.7536C515.567 51.6431 515.125 51.5325 514.572 51.4219L514.461 51.7536Z" fill="#04E2AF"/>
<path d="M512.913 266.074C513.466 266.185 513.908 266.295 514.461 266.406L514.572 266.074C514.019 265.963 513.577 265.853 513.024 265.742L512.913 266.074Z" fill="#04E2AF"/>
<path d="M510.701 50.8708C511.254 50.9814 511.697 51.092 512.25 51.2026L512.36 50.8708C511.807 50.7602 511.365 50.6497 510.812 50.5391L510.701 50.8708Z" fill="#04E2AF"/>
<path d="M506.831 49.988C507.384 50.0986 507.826 50.2092 508.379 50.3198L508.49 49.988C507.937 49.8774 507.494 49.7668 506.941 49.6562L506.831 49.988Z" fill="#04E2AF"/>
<path d="M509.289 264.797L509.182 265.227L510.684 265.602L510.791 265.173L509.289 264.797Z" fill="#04E2AF"/>
<path d="M486.151 260.216C486.704 260.326 487.146 260.326 487.699 260.437L487.809 259.995C487.257 259.884 486.814 259.884 486.261 259.773L486.151 260.216Z" fill="#04E2AF"/>
<path d="M474.539 259.109V259.552H474.981C475.313 259.552 475.755 259.552 476.087 259.552V259.109C475.755 259.109 475.313 259.109 474.981 259.109H474.539Z" fill="#04E2AF"/>
<path d="M475.755 46.8906V47.333C476.308 47.333 476.75 47.333 477.303 47.333V46.8906C476.861 46.8906 476.308 46.8906 475.755 46.8906Z" fill="#04E2AF"/>
<path d="M478.409 259.552C478.962 259.552 479.405 259.552 479.958 259.662V259.22C479.405 259.22 478.962 259.109 478.409 259.109V259.552Z" fill="#04E2AF"/>
<path d="M470.558 259.22V259.662C471.111 259.662 471.553 259.552 472.106 259.552V259.109C471.664 259.109 471.111 259.22 470.558 259.22Z" fill="#04E2AF"/>
<path d="M479.736 47.2197C480.289 47.2197 480.732 47.2197 481.285 47.2197V46.7773C480.732 46.7773 480.289 46.7773 479.736 46.7773V47.2197Z" fill="#04E2AF"/>
<path d="M471.885 47.0012V47.4436C472.438 47.4436 472.88 47.4436 473.433 47.333V46.8906C472.88 47.0012 472.438 47.0012 471.885 47.0012Z" fill="#04E2AF"/>
<path d="M490.021 260.879C490.574 260.989 491.017 261.1 491.57 261.1L491.68 260.768C491.127 260.657 490.685 260.547 490.132 260.547L490.021 260.879Z" fill="#04E2AF"/>
<path d="M487.478 47.5517C488.03 47.5517 488.473 47.6623 489.026 47.6623V47.22C488.473 47.22 488.03 47.1094 487.478 47.1094V47.5517Z" fill="#04E2AF"/>
<path d="M491.459 47.7744C492.012 47.7744 492.454 47.885 493.007 47.885V47.4426C492.454 47.4426 492.012 47.332 491.459 47.332V47.7744Z" fill="#04E2AF"/>
<path d="M516.784 267.074C517.337 267.185 517.779 267.295 518.332 267.406L518.443 267.074C517.89 266.963 517.447 266.853 516.895 266.742L516.784 267.074Z" fill="#04E2AF"/>
<path d="M482.28 259.774C482.833 259.774 483.275 259.885 483.828 259.885V259.443C483.275 259.332 482.833 259.332 482.28 259.332V259.774Z" fill="#04E2AF"/>
<path d="M483.607 47.333C484.16 47.333 484.603 47.333 485.155 47.4436V47.0012C484.603 47.0012 484.16 47.0012 483.607 46.8906V47.333Z" fill="#04E2AF"/>
<path d="M497.763 262.429C498.316 262.54 498.758 262.651 499.311 262.761L499.422 262.429C498.869 262.319 498.426 262.208 497.873 262.098L497.763 262.429Z" fill="#04E2AF"/>
<path d="M536.801 59.0544C537.243 59.2756 537.796 59.4968 538.238 59.6074L538.349 59.2756C537.906 59.0544 537.353 58.8332 536.911 58.7227L536.801 59.0544Z" fill="#04E2AF"/>
<path d="M540.339 60.4919C540.782 60.7131 541.335 60.9343 541.777 61.1555L541.888 60.8237C541.445 60.6025 540.892 60.3813 540.45 60.1602L540.339 60.4919Z" fill="#04E2AF"/>
<path d="M524.415 268.73C524.967 268.841 525.41 268.951 525.963 269.062L526.073 268.73C525.52 268.62 525.078 268.509 524.525 268.398L524.415 268.73Z" fill="#04E2AF"/>
<path d="M528.285 269.395C528.838 269.506 529.28 269.617 529.833 269.617L529.944 269.174C529.391 269.064 528.949 269.064 528.396 268.953L528.285 269.395Z" fill="#04E2AF"/>
<path d="M525.741 54.9646C526.184 55.0752 526.737 55.2963 527.179 55.4069L527.29 55.0752C526.847 54.854 526.294 54.7434 525.852 54.6328L525.741 54.9646Z" fill="#04E2AF"/>
<path d="M522.092 53.8552C522.645 53.9658 523.088 54.187 523.641 54.2976L523.751 53.9658C523.198 53.8552 522.756 53.634 522.203 53.5234L522.092 53.8552Z" fill="#04E2AF"/>
<path d="M520.544 267.847C521.097 267.958 521.539 268.069 522.092 268.179L522.203 267.847C521.65 267.737 521.207 267.626 520.655 267.516L520.544 267.847Z" fill="#04E2AF"/>
<path d="M529.502 56.2888C529.944 56.51 530.497 56.6206 530.939 56.8417L531.05 56.51C530.608 56.2888 530.055 56.1782 529.612 55.957L529.502 56.2888Z" fill="#04E2AF"/>
<path d="M518.332 52.7497C518.885 52.8603 519.328 53.0815 519.881 53.1921L519.991 52.8603C519.438 52.7497 518.996 52.5286 518.443 52.418L518.332 52.7497Z" fill="#04E2AF"/>
<path d="M532.156 269.95C532.709 270.061 533.151 270.061 533.704 270.171V269.729C533.151 269.618 532.709 269.618 532.156 269.508V269.95Z" fill="#04E2AF"/>
<path d="M539.897 270.833C540.45 270.833 540.892 270.944 541.445 270.944V270.501C540.892 270.501 540.45 270.391 539.897 270.391V270.833Z" fill="#04E2AF"/>
<path d="M536.026 270.388C536.579 270.388 537.022 270.498 537.575 270.498V270.056C537.022 270.056 536.579 269.945 536.026 269.945V270.388Z" fill="#04E2AF"/>
<path d="M533.151 57.6169C533.593 57.8381 534.146 57.9487 534.589 58.1699L534.699 57.8381C534.257 57.6169 533.704 57.5063 533.262 57.2852L533.151 57.6169Z" fill="#04E2AF"/>
<path d="M273.377 305.999C272.824 305.999 272.271 305.888 271.829 305.778L271.94 305.446C272.493 305.556 272.935 305.556 273.488 305.667L273.377 305.999ZM275.81 305.999V305.556C276.363 305.556 276.806 305.446 277.359 305.335L277.469 305.667C276.806 305.888 276.253 305.999 275.81 305.999ZM279.681 305.335L279.57 305.003C280.013 304.893 280.566 304.782 281.008 304.561L281.119 304.893C280.676 305.003 280.123 305.225 279.681 305.335ZM269.507 305.225C268.954 305.003 268.511 304.893 268.069 304.672L268.29 304.34C268.733 304.561 269.286 304.782 269.728 304.893L269.507 305.225ZM283.441 304.008L283.33 303.676C283.773 303.455 284.326 303.234 284.768 303.013L284.989 303.345C284.326 303.566 283.883 303.787 283.441 304.008ZM286.869 302.239L286.648 301.907C287.09 301.686 287.533 301.354 287.975 301.133L288.196 301.465C287.754 301.686 287.312 302.018 286.869 302.239ZM290.187 300.027L289.966 299.695C290.408 299.363 290.74 299.032 291.182 298.7L291.403 299.032C290.961 299.363 290.629 299.695 290.187 300.027ZM293.173 297.483L292.952 297.152C293.283 296.82 293.726 296.488 294.058 296.046L294.279 296.378C293.947 296.82 293.615 297.152 293.173 297.483ZM295.938 294.719L295.606 294.497C295.938 294.166 296.269 293.723 296.601 293.281L296.933 293.502C296.712 293.945 296.38 294.387 295.938 294.719ZM298.481 291.733L298.149 291.512C298.481 291.069 298.813 290.627 299.034 290.295L299.366 290.516C299.145 290.959 298.813 291.29 298.481 291.733ZM300.804 288.526L300.472 288.304C300.804 287.862 301.025 287.42 301.246 286.977L301.578 287.199C301.356 287.641 301.025 288.083 300.804 288.526ZM302.794 285.208L302.462 284.987C302.684 284.544 302.905 284.102 303.126 283.549L303.458 283.77C303.236 284.213 303.015 284.655 302.794 285.208ZM304.453 281.669L304.121 281.559C304.342 281.116 304.564 280.563 304.674 280.121L305.006 280.231C304.895 280.674 304.674 281.116 304.453 281.669ZM305.891 277.909L305.559 277.798C305.78 277.356 305.891 276.803 306.001 276.361L306.333 276.471C306.222 276.914 306.112 277.467 305.891 277.909ZM306.997 274.149L306.665 274.038C306.775 273.486 306.886 273.043 306.997 272.49L307.328 272.601C307.328 273.154 307.107 273.707 306.997 274.149ZM307.881 270.278L307.549 270.168C307.66 269.615 307.66 269.173 307.771 268.62H308.213C307.992 269.283 307.881 269.836 307.881 270.278ZM308.324 266.408H307.881C307.881 265.855 307.992 265.412 307.992 264.86H308.434C308.434 265.412 308.324 265.965 308.324 266.408ZM308.545 262.537H308.102V262.095C308.102 261.763 308.102 261.321 308.102 260.989H308.545C308.545 261.321 308.545 261.763 308.545 262.095V262.537ZM307.992 258.556C307.992 258.003 307.881 257.561 307.881 257.008H308.324C308.324 257.561 308.434 258.003 308.434 258.556H307.992ZM307.549 254.685C307.439 254.132 307.439 253.69 307.328 253.137L307.66 253.026C307.771 253.579 307.881 254.022 307.881 254.575L307.549 254.685ZM306.886 250.925C306.775 250.372 306.665 249.93 306.554 249.377L306.886 249.266C306.997 249.819 307.107 250.262 307.218 250.815L306.886 250.925ZM306.001 247.055C305.891 246.502 305.669 246.059 305.559 245.617L305.891 245.506C306.001 246.059 306.222 246.502 306.333 247.055H306.001ZM304.674 243.405C304.453 242.963 304.342 242.41 304.121 241.968L304.453 241.857C304.674 242.299 304.785 242.852 305.006 243.295L304.674 243.405ZM303.237 239.756C303.015 239.313 302.794 238.76 302.573 238.318L302.905 238.097C303.126 238.539 303.347 239.092 303.568 239.535L303.237 239.756ZM301.467 236.327C301.356 236.217 301.356 235.996 301.246 235.885C301.025 235.553 300.914 235.222 300.693 235L301.025 234.779C301.246 235.111 301.356 235.443 301.578 235.664C301.688 235.775 301.688 235.996 301.799 236.106L301.467 236.327ZM299.587 232.899C299.255 232.457 299.034 232.015 298.702 231.572L299.034 231.351C299.366 231.793 299.587 232.236 299.919 232.678L299.587 232.899ZM297.375 229.692C297.043 229.25 296.712 228.807 296.491 228.476L296.822 228.254C297.154 228.697 297.486 229.139 297.707 229.471L297.375 229.692ZM295.053 226.596C294.721 226.153 294.389 225.822 294.058 225.379L294.389 225.158C294.721 225.6 295.053 225.932 295.385 226.374L295.053 226.596ZM292.509 223.61C292.178 223.167 291.846 222.836 291.514 222.393L291.846 222.172C292.178 222.614 292.509 222.946 292.841 223.389L292.509 223.61ZM289.855 220.624C289.523 220.292 289.192 219.85 288.749 219.518L289.081 219.297C289.413 219.629 289.855 220.071 290.187 220.403L289.855 220.624ZM287.201 217.859C286.869 217.527 286.427 217.085 286.095 216.753L286.427 216.421C286.759 216.753 287.201 217.196 287.533 217.527L287.201 217.859ZM284.436 215.094C284.105 214.763 283.662 214.32 283.33 213.988L283.552 213.657C283.883 213.988 284.326 214.431 284.657 214.763L284.436 215.094ZM281.561 212.33L280.455 211.224L280.676 210.892L281.782 211.998L281.561 212.33ZM278.796 209.675L277.69 208.57L277.912 208.238L279.017 209.344L278.796 209.675ZM275.921 206.911L274.815 205.805L275.036 205.473L276.142 206.579L275.921 206.911ZM273.046 204.257C272.714 203.925 272.271 203.482 271.94 203.151L272.161 202.819C272.493 203.151 272.935 203.593 273.267 203.925L273.046 204.257ZM270.281 201.492C269.949 201.16 269.507 200.718 269.175 200.386L269.507 200.165C269.839 200.497 270.281 200.939 270.613 201.271L270.281 201.492ZM267.516 198.727C267.184 198.395 266.853 197.953 266.41 197.621L266.742 197.4C267.074 197.732 267.406 198.174 267.848 198.506L267.516 198.727ZM264.973 195.741C264.641 195.299 264.309 194.857 263.977 194.525L264.309 194.304C264.641 194.746 264.973 195.078 265.304 195.52L264.973 195.741ZM262.65 192.534C262.318 192.092 262.097 191.649 261.876 191.207L262.208 190.986C262.429 191.428 262.761 191.871 262.982 192.313L262.65 192.534ZM260.881 188.995C260.77 188.885 260.77 188.664 260.66 188.553C260.549 188.221 260.438 187.889 260.328 187.558L260.66 187.447C260.77 187.779 260.881 188.111 260.991 188.442C261.102 188.553 261.102 188.774 261.213 188.885L260.881 188.995ZM259.775 185.235C259.664 184.682 259.664 184.24 259.554 183.687H259.996C259.996 184.24 260.107 184.682 260.217 185.235H259.775ZM259.996 181.254H259.554C259.554 180.701 259.664 180.148 259.664 179.706H260.107C260.107 180.259 259.996 180.812 259.996 181.254ZM260.549 177.494L260.217 177.383C260.328 176.83 260.438 176.388 260.66 175.835L260.991 175.946C260.77 176.499 260.66 176.941 260.549 177.494ZM261.765 173.734L261.434 173.623C261.655 173.181 261.876 172.628 262.097 172.186L262.429 172.407C262.208 172.849 261.987 173.292 261.765 173.734ZM263.535 170.306L263.203 170.085C263.424 169.642 263.756 169.2 264.088 168.757L264.42 168.979C264.088 169.421 263.756 169.863 263.535 170.306ZM265.747 167.099L265.415 166.877C265.747 166.435 266.078 166.103 266.41 165.661L266.742 165.882C266.41 166.324 266.078 166.767 265.747 167.099ZM268.401 164.223L268.18 163.892C268.511 163.56 268.954 163.117 269.286 162.786L269.507 163.117C269.064 163.56 268.733 163.892 268.401 164.223ZM271.276 161.68L271.055 161.348C271.497 161.016 271.94 160.684 272.382 160.463L272.603 160.795C272.161 161.127 271.719 161.348 271.276 161.68ZM274.483 159.579L274.262 159.247C274.704 159.026 275.147 158.694 275.589 158.473L275.81 158.804C275.479 159.026 275.036 159.247 274.483 159.579ZM278.022 157.809L277.912 157.477C278.354 157.256 278.907 157.035 279.349 156.924L279.46 157.256C279.017 157.367 278.464 157.588 278.022 157.809ZM281.672 156.371L281.561 156.04C282.003 155.819 282.556 155.708 283.109 155.597L283.22 155.929C282.667 156.04 282.114 156.261 281.672 156.371ZM285.432 155.266L285.321 154.934C285.874 154.823 286.316 154.713 286.869 154.602L286.98 154.934C286.427 155.044 285.874 155.155 285.432 155.266ZM289.192 154.491L289.081 154.16C289.634 154.049 290.076 153.938 290.629 153.938L290.74 154.381C290.187 154.27 289.745 154.381 289.192 154.491ZM293.062 153.828V153.386C293.615 153.275 294.058 153.275 294.611 153.164V153.607C294.058 153.717 293.615 153.828 293.062 153.828ZM296.933 153.496V153.054C297.486 153.054 297.928 152.943 298.481 152.943V153.386C298.039 153.386 297.486 153.386 296.933 153.496ZM300.804 153.164V152.722C301.356 152.722 301.799 152.611 302.352 152.611V153.054C301.909 153.054 301.356 153.164 300.804 153.164ZM304.785 152.943V152.501L306.333 152.39V152.833L304.785 152.943ZM308.655 152.833V152.39L310.204 152.28V152.722L308.655 152.833ZM312.637 152.611V152.169H312.968C313.411 152.169 313.742 152.169 314.185 152.058V152.501C313.742 152.501 313.3 152.501 312.968 152.611H312.637ZM316.507 152.39V151.948C317.06 151.948 317.503 151.837 318.055 151.727V152.169C317.503 152.28 317.06 152.39 316.507 152.39ZM320.378 151.837L320.267 151.506C320.82 151.395 321.263 151.284 321.815 151.174L321.926 151.506C321.484 151.616 320.931 151.727 320.378 151.837ZM324.248 150.731L324.027 150.4C324.58 150.178 325.023 149.957 325.465 149.736L325.686 150.068C325.244 150.289 324.691 150.51 324.248 150.731ZM327.677 148.962L327.456 148.63C327.898 148.298 328.23 147.967 328.672 147.635L328.893 147.967C328.561 148.298 328.119 148.63 327.677 148.962ZM330.441 146.087L330.11 145.865C330.22 145.755 330.331 145.534 330.441 145.423C330.663 145.202 330.773 144.87 330.884 144.538L331.216 144.76C331.105 145.091 330.884 145.423 330.663 145.644C330.663 145.755 330.552 145.976 330.441 146.087ZM332.1 142.437L331.769 142.327C331.879 141.884 331.99 141.331 331.99 140.778H332.432C332.321 141.442 332.211 141.995 332.1 142.437ZM331.879 138.567C331.769 138.014 331.769 137.571 331.547 137.018L331.879 136.908C331.99 137.461 332.1 137.903 332.211 138.456L331.879 138.567ZM324.138 136.244C323.585 136.244 323.032 136.134 322.59 136.023L322.7 135.691C323.143 135.802 323.696 135.912 324.248 135.912L324.138 136.244ZM326.571 136.244V135.802C327.124 135.802 327.566 135.691 328.119 135.581L328.23 135.912C327.566 136.023 327.013 136.134 326.571 136.244ZM330.331 135.249L330.22 134.917C330.331 134.807 330.552 134.807 330.663 134.696C330.441 134.364 330.22 133.922 329.999 133.59L330.331 133.369C330.552 133.701 330.884 134.143 331.105 134.585C331.326 134.475 331.547 134.364 331.658 134.254L331.879 134.585C331.326 134.807 330.884 135.028 330.331 135.249ZM320.488 134.807C320.046 134.364 319.825 133.922 319.604 133.369L319.935 133.258C320.046 133.701 320.267 134.143 320.71 134.475L320.488 134.807ZM333.87 133.369L333.649 133.037C333.98 132.816 334.312 132.595 334.533 132.374C334.644 132.263 334.754 132.263 334.865 132.152L335.086 132.484C334.976 132.595 334.865 132.705 334.754 132.705C334.533 132.927 334.201 133.148 333.87 133.369ZM328.451 131.931C328.008 131.599 327.677 131.268 327.234 130.936L327.456 130.604C327.898 130.936 328.34 131.268 328.672 131.599L328.451 131.931ZM320.488 131.268L320.157 131.046C320.488 130.604 320.931 130.272 321.373 129.941L321.594 130.272C321.041 130.494 320.71 130.825 320.488 131.268ZM336.966 130.936L336.745 130.604C337.077 130.272 337.519 129.83 337.851 129.498L338.183 129.719C337.63 130.162 337.298 130.604 336.966 130.936ZM325.133 129.941C324.58 129.83 324.138 129.719 323.696 129.719V129.277C324.248 129.277 324.801 129.388 325.244 129.498L325.133 129.941ZM339.51 127.95L339.178 127.729C339.51 127.286 339.731 126.844 340.063 126.402L340.394 126.623C340.063 127.065 339.842 127.508 339.51 127.95ZM341.5 124.522L341.169 124.301C341.39 123.858 341.611 123.305 341.832 122.863L342.164 122.973C341.943 123.526 341.722 124.079 341.5 124.522ZM342.827 120.762L342.496 120.651C342.606 120.209 342.717 119.656 342.827 119.103L343.159 119.213C343.159 119.766 343.049 120.319 342.827 120.762ZM343.602 116.891H343.159C343.27 116.338 343.27 115.896 343.27 115.343H343.712C343.712 115.896 343.712 116.449 343.602 116.891ZM343.38 113.02C343.38 112.467 343.27 112.025 343.27 111.472H343.712C343.823 112.025 343.823 112.467 343.823 113.02H343.38ZM342.717 109.15C342.606 108.597 342.496 108.155 342.275 107.712L342.606 107.602C342.717 108.044 342.938 108.597 343.049 109.15H342.717Z" fill="#04E2AF"/>
<path d="M364.948 101.428L325.492 88.3008L316.519 115.27L355.976 128.397L364.948 101.428Z" fill="#FBB220"/>
<path d="M362.501 102.48L326.822 90.6094L318.932 114.325L354.611 126.196L362.501 102.48Z" fill="#F69026"/>
<g opacity="0.3">
<path d="M325.464 98.8685C326.017 98.205 326.902 97.652 327.787 97.3203C328.45 97.0991 329.224 97.0991 329.777 97.4309C330.551 97.8732 330.773 98.8685 330.994 99.7532C332.431 97.652 334.643 95.8826 337.187 95.9932C337.629 95.9932 338.182 96.1038 338.625 96.325C339.841 96.9885 340.283 98.5368 340.394 99.8638C340.615 102.076 340.394 104.398 339.73 106.61C340.394 105.504 342.163 105.614 343.159 106.499C344.154 107.384 344.375 108.711 344.375 110.038C344.375 111.255 344.043 112.471 343.49 113.577C343.048 114.572 342.385 115.457 341.5 116.01C340.947 116.342 340.394 116.563 339.841 116.673C337.076 117.337 334.201 116.231 331.657 114.904C330.109 114.13 328.561 113.245 327.123 112.25C326.57 111.918 325.907 111.476 325.796 110.812" fill="#F69026"/>
</g>
<g opacity="0.3">
<path d="M333.427 112.692C334.09 111.696 334.975 110.037 336.081 109.485C337.187 108.932 338.735 109.374 339.509 110.369C340.172 109.374 340.504 108.157 341.057 107.052C341.61 105.835 342.274 104.729 343.048 103.623C344.154 102.075 345.813 100.637 347.803 100.859C348.909 100.969 349.794 101.633 350.457 102.407C351.121 103.292 351.453 104.287 351.563 105.282C352.227 104.397 353.111 103.623 354.217 103.402C355.323 103.181 356.54 103.623 357.203 104.508C357.646 105.172 357.756 106.056 357.867 106.83C357.977 107.936 358.088 109.042 357.867 110.259C357.756 110.59 357.756 111.033 357.646 111.365C357.646 111.696 357.646 112.028 357.646 112.249C357.646 114.461 355.987 116.452 353.775 116.783C351.563 117.115 349.794 118.774 347.471 118.995C346.255 119.106 344.928 118.885 343.711 118.553C341.057 117.889 338.624 116.894 336.191 115.567C335.417 115.125 334.643 114.682 334.201 113.908" fill="#F69026"/>
</g>
<path d="M331.215 118.33L354.549 126.072L361.627 104.617C354.549 105.281 347.471 106.94 341.278 110.368C337.518 112.469 334.09 115.123 331.215 118.33Z" fill="#D56F28"/>
<path d="M331.768 101.52C329.998 98.8662 327.897 96.4332 325.575 94.332L318.939 114.238L337.85 120.542C337.518 113.796 335.417 107.16 331.768 101.52Z" fill="#E17926"/>
<path d="M302.089 51.5971L266.995 65.9961L276.902 90.143L311.997 75.7439L302.089 51.5971Z" fill="#F69026"/>
<path d="M276.805 90.1322L311.973 75.7556L289.634 71.332L276.805 90.1322Z" fill="#FBB220"/>
<path d="M302.02 51.6445L266.963 66.0211L291.624 76.1954L302.02 51.6445Z" fill="#F37827"/>
<path opacity="0.24" d="M222.948 275.698C258.311 275.698 286.979 271.737 286.979 266.851C286.979 261.965 258.311 258.004 222.948 258.004C187.584 258.004 158.917 261.965 158.917 266.851C158.917 271.737 187.584 275.698 222.948 275.698Z" fill="#C3D6E1"/>
<path d="M192.025 75.9505L158.495 66.4961L152.042 89.3812L185.572 98.8356L192.025 75.9505Z" fill="#FBB220"/>
<path d="M190.038 76.8833L159.808 68.3594L154.136 88.4769L184.365 97.0009L190.038 76.8833Z" fill="#F69026"/>
<g opacity="0.3">
<path d="M158.916 75.4222C159.358 74.7587 160.021 74.3163 160.796 74.0951C161.348 73.8739 162.012 73.8739 162.454 74.0951C163.118 74.4269 163.339 75.3116 163.56 75.9751C164.666 74.2057 166.546 72.5469 168.647 72.5469C169.09 72.5469 169.532 72.6575 169.864 72.7681C170.859 73.321 171.302 74.5375 171.412 75.6434C171.633 77.5234 171.523 79.4034 171.08 81.2834C171.633 80.3987 173.071 80.2881 173.956 81.0623C174.73 81.7258 175.062 82.9423 175.062 83.9376C175.062 84.9329 174.84 86.0388 174.509 86.9235C174.177 87.6976 173.624 88.4717 172.96 89.0247C172.518 89.3565 172.076 89.467 171.523 89.6882C169.2 90.3518 166.767 89.467 164.666 88.4717C163.339 87.8082 162.012 87.1447 160.796 86.3705C160.353 86.0388 159.8 85.707 159.579 85.1541" fill="#F69026"/>
</g>
<g opacity="0.3">
<path d="M166.104 86.5931C166.657 85.7084 167.32 84.2708 168.205 83.8284C169.201 83.3861 170.417 83.6072 171.081 84.3814C171.633 83.4966 171.855 82.5013 172.186 81.506C172.629 80.5107 173.071 79.5154 173.735 78.5201C174.619 77.193 175.946 75.9766 177.605 75.9766C178.49 75.9766 179.264 76.5295 179.928 77.1931C180.481 77.8566 180.812 78.7413 181.034 79.626C181.476 78.8519 182.25 78.1884 183.135 77.9672C184.019 77.746 185.125 78.0778 185.678 78.7413C186.121 79.2942 186.231 79.9578 186.231 80.6213C186.342 81.506 186.452 82.5013 186.342 83.3861C186.342 83.7178 186.231 84.0496 186.231 84.2708C186.231 84.4919 186.231 84.8237 186.231 85.0449C186.231 86.9249 185.015 88.5837 183.245 89.0261C181.365 89.4685 179.928 90.7955 178.048 91.1273C177.052 91.3485 175.946 91.1273 174.951 90.9061C172.739 90.4638 170.638 89.6896 168.648 88.6943C167.984 88.3626 167.32 88.0308 166.878 87.4779" fill="#F69026"/>
</g>
<path d="M164.556 91.4587L184.351 96.9882L189.438 78.8516C183.577 79.7363 177.716 81.3951 172.629 84.381C169.532 86.261 166.767 88.5834 164.556 91.4587Z" fill="#D56F28"/>
<path d="M164.335 77.4108C162.787 75.3096 160.907 73.319 158.916 71.6602L154.05 88.4697L170.086 93.0039C169.533 87.3638 167.542 81.945 164.335 77.4108Z" fill="#E17926"/>
<path d="M193.752 90.1298L187.78 82.3886C187.227 81.6144 186.121 82.278 186.342 83.1627L187.559 88.1392C187.559 88.1392 184.352 93.0051 191.319 95.5487" fill="#EDA28D"/>
<path d="M193.862 89.1367L218.081 124.525L201.161 127.069L187.227 95.6615L193.862 89.1367Z" fill="#08BC8D"/>
<path d="M193.53 93.4492C192.977 94.0022 192.535 94.6657 191.982 95.1081L209.787 125.741L212.22 125.41L193.53 93.4492Z" fill="#04E2AF"/>
<path d="M188.665 99.0874L195.632 91.6779L195.19 91.125L188.333 98.3133L188.665 99.0874Z" fill="#646FB3"/>
<path d="M232.237 84.2695C232.237 84.2695 220.183 103.623 219.961 126.957C219.851 150.402 251.037 132.708 251.037 132.708L248.604 105.503L232.237 84.2695Z" fill="#04E2AF"/>
<path d="M188.333 249.82L184.794 257.009C184.794 257.009 170.639 252.917 167.432 257.119C174.178 260.769 187.559 265.303 187.559 265.303L194.747 250.816" fill="#EDA28D"/>
<path d="M264.087 249.158L267.847 256.235C267.847 256.235 256.346 265.414 257.783 270.391C264.75 267.073 276.141 258.668 276.141 258.668L268.51 244.402" fill="#EDA28D"/>
<path d="M185.901 254.906L184.905 257.007C184.905 257.007 170.75 252.916 167.543 257.118C174.289 260.767 187.67 265.302 187.67 265.302L191.098 258.335L185.901 254.906Z" fill="#384A9E"/>
<path d="M266.741 254.135L267.847 256.236C267.847 256.236 256.346 265.415 257.783 270.392C264.75 267.074 276.141 258.669 276.141 258.669L272.492 251.812L266.741 254.135Z" fill="#384A9E"/>
<path d="M235.444 193.311C235.997 193.311 253.028 237.989 263.866 252.587C272.271 248.937 273.045 247.831 273.045 247.831C273.045 247.831 257.009 199.061 255.019 184.574" fill="#9C6AFD"/>
<path d="M206.912 197.179L186.564 250.151L194.637 253.801C194.637 253.801 228.035 200.054 235.997 192.977" fill="#9C6AFD"/>
<path d="M192.204 252.697L227.593 194.195L224.717 194.527L190.214 251.702L192.204 252.697Z" fill="#1A1C55"/>
<path d="M244.402 189.551C249.047 202.712 260.327 233.345 268.953 250.376C269.727 249.933 270.391 249.601 270.944 249.38C262.428 232.681 251.148 201.827 246.504 188.777L244.402 189.551Z" fill="#1A1C55"/>
<g opacity="0.22">
<path d="M241.748 207.907C244.291 208.129 246.835 208.35 249.379 208.46C253.36 208.792 257.23 209.124 261.212 209.456C258.336 199.392 255.793 189.881 255.129 184.684L235.666 193.31C235.666 193.31 238.098 199.503 241.748 207.907Z" fill="#FBB220"/>
</g>
<g opacity="0.22">
<path d="M206.359 205.363C212.663 205.805 218.966 206.247 225.27 206.69C229.915 200.054 233.785 194.857 235.997 192.977L206.912 197.179L203.816 205.252C204.7 205.252 205.585 205.363 206.359 205.363Z" fill="#FBB220"/>
</g>
<path d="M211.778 49.9844L192.093 52.3067C192.093 52.3067 210.119 58.4998 210.23 58.0574C210.23 57.7256 211.778 49.9844 211.778 49.9844Z" fill="#646FB3"/>
<path d="M208.681 58.0586L205.143 69.6705L211.336 70.9975L208.681 58.0586Z" fill="#F58D77"/>
<path d="M222.394 46.4476C222.394 46.4476 206.359 45.3417 208.571 62.8148C209.677 71.6619 210.672 76.1961 211.336 78.5185C211.778 79.8455 212.884 80.7302 214.211 80.9514C219.63 81.8361 234.227 83.0526 237.877 71.5513C242.411 57.3959 236.439 47.8852 236.439 47.8852L222.394 46.4476Z" fill="#EDA28D"/>
<path d="M210.893 72.545L216.755 70.2227L212.552 76.0839L210.893 72.545Z" fill="white"/>
<path d="M287.784 116.787L169.927 122.629L173.94 203.594L291.797 197.752L287.784 116.787Z" fill="#3E3177"/>
<path d="M173.846 203.596L291.734 197.734L230.91 161.793L173.846 203.596Z" fill="#4C4586"/>
<path d="M287.752 116.781L169.864 122.642L224.938 172.186C228.698 175.504 234.338 175.283 237.766 171.523L287.752 116.781Z" fill="#2B2460"/>
<path d="M238.098 68.2328C239.425 65.6892 240.31 63.0351 240.752 60.1597C239.425 58.1691 237.987 56.5103 237.987 56.5103L218.966 53.082C218.966 53.082 224.716 65.5786 237.434 68.1222C237.655 68.1222 237.877 68.2328 238.098 68.2328Z" fill="#2B2460"/>
<path d="M225.048 78.0762L233.674 95.1069L241.637 90.0198L230.799 73.9844L225.048 78.0762Z" fill="#EDA28D"/>
<path d="M208.792 54.4099C209.235 54.5204 232.237 58.5017 240.31 62.0405C242.411 55.5157 240.642 48.8804 239.094 47.3321C235.444 42.6874 227.261 40.4756 219.63 41.5815C219.298 41.5815 219.077 41.6921 218.745 41.8027C210.119 43.9039 208.792 54.4099 208.792 54.4099Z" fill="#9C6AFD"/>
<path d="M238.872 53.7458C238.43 53.8564 237.877 54.0776 237.545 54.4094C237.103 54.7411 236.882 55.2941 236.882 55.7364C236.882 56.2894 237.214 56.8423 237.545 57.2847C238.43 58.3906 239.647 59.1647 240.974 59.6071C241.416 57.3953 241.416 55.2941 241.195 53.4141C240.421 53.4141 239.647 53.5247 238.872 53.7458Z" fill="#646FB3"/>
<path d="M231.242 144.984L225.712 142.883L220.846 150.735C220.846 150.735 220.846 150.735 220.846 150.845C220.404 150.956 219.962 151.066 219.409 151.177C217.971 151.619 216.976 152.393 217.086 152.836C217.197 153.278 218.524 153.168 219.851 152.725C220.183 152.615 220.404 152.504 220.736 152.393C220.515 152.615 220.183 152.946 219.851 153.278C218.745 154.605 218.082 155.932 218.524 156.264C218.856 156.596 220.183 155.711 221.289 154.384C221.289 154.384 221.289 154.384 221.399 154.274C221.289 154.384 221.289 154.495 221.178 154.716C220.293 156.264 220.072 157.702 220.515 157.923C220.957 158.144 221.952 157.149 222.837 155.601C222.505 157.37 222.726 158.808 223.169 158.918C223.611 159.029 224.164 157.923 224.496 156.375C224.496 157.591 224.828 158.476 225.159 158.476C225.712 158.476 226.155 157.149 226.265 155.379C226.376 155.269 226.486 155.048 226.597 154.716L231.242 144.984Z" fill="#EDA28D"/>
<path d="M243.739 70.4456C241.416 72.9892 238.098 73.6527 236.329 71.9939C234.56 70.335 235.002 66.9068 237.324 64.4738C239.647 61.9302 242.964 61.2667 244.734 62.9255C246.503 64.4738 246.061 67.9021 243.739 70.4456Z" fill="#EDA28D"/>
<path opacity="0.48" d="M240.089 119.106L228.809 150.402L271.939 117.668L240.089 119.106Z" fill="#2B2460"/>
<path d="M251.369 101.632L243.296 87.9187C241.305 84.8222 237.214 84.0481 234.228 85.9281C231.131 87.9187 230.357 92.0105 232.237 94.9964L244.07 112.248L222.837 146.199L228.809 150.402L257.341 117.446C258.889 115.677 259 113.133 257.783 111.253L251.369 101.632Z" fill="#08BC8D"/>
<path d="M251.258 110.035L236.107 85.1523C235.444 85.3735 234.78 85.5947 234.227 86.0371L234.117 86.1476L249.378 111.251C250.263 112.689 250.152 114.459 249.157 115.786L227.371 144.318C228.145 144.318 228.919 144.649 229.693 144.981L251.037 117.113C252.475 115.011 252.585 112.247 251.258 110.035Z" fill="#04E2AF"/>
<path d="M231.794 147.085L232.236 146.532C229.914 145.094 227.702 143.656 225.38 142.219L224.938 142.882C227.26 144.209 229.582 145.647 231.794 147.085Z" fill="#646FB3"/>
</svg>
